<svg width="80" height="700" viewBox="0 0 80 700" fill="none" xmlns="http://www.w3.org/2000/svg">
<g filter="url(#filter0_bd_1_1596)">
<path d="M0 0H16.5446C38.7561 0 49.8618 0 58.3455 4.32264C65.8079 8.12494 71.875 14.1921 75.6773 21.6545C80 30.1382 80 41.2439 80 63.4554V246.484C80 257.528 80 263.049 78.7303 267.946C76.6375 276.017 77.9033 273.204 73.2506 280.122C70.4279 284.32 53.9439 298.926 20.9759 328.137C13.278 334.958 8 344.275 8 357C8 366.084 10.6896 373.151 15.0292 378.641C54.2961 428.318 73.9296 453.156 75.7315 456.719C79.7487 464.662 77.4299 457.989 79.2042 466.712C80 470.625 80 464.457 80 466.924V636.545C80 658.756 80 669.862 75.6773 678.345C71.875 685.808 65.8079 691.875 58.3455 695.677C49.8618 700 38.7561 700 16.5446 700H0V0Z" fill="white" fill-opacity="0.4"/>
<path d="M79.1995 468.543C79.2356 468.572 79.2811 468.604 79.3354 468.632V636.545C79.3354 647.661 79.3349 655.959 78.7973 662.539C78.2603 669.111 77.1908 673.911 75.0852 678.044C71.3466 685.381 65.3811 691.347 58.0437 695.085C53.9112 697.191 49.1111 698.26 42.5388 698.797C35.9588 699.335 27.6613 699.335 16.5446 699.335H0.66456V0.66456H16.5446C27.6613 0.66456 35.9588 0.665077 42.5388 1.20268C49.1111 1.73966 53.9112 2.80914 58.0437 4.91477C65.3811 8.65336 71.3466 14.6188 75.0852 21.9562C77.1908 26.0888 78.2603 30.8889 78.7973 37.4612C79.3349 44.0411 79.3354 52.3387 79.3354 63.4554V246.484C79.3354 257.565 79.3303 262.984 78.087 267.779C77.7453 269.097 77.4899 270.137 77.286 270.968C77.1785 271.406 77.0853 271.786 77.0013 272.117C76.7541 273.092 76.5823 273.665 76.3444 274.193C76.1065 274.722 75.7916 275.231 75.2259 276.062C75.0337 276.345 74.8113 276.666 74.5545 277.038C74.0681 277.741 73.4587 278.622 72.6992 279.752C72.0367 280.737 70.5254 282.392 68.0621 284.814C65.6138 287.221 62.2658 290.346 57.9702 294.258C49.3799 302.082 37.0216 313.032 20.5367 327.639L20.5351 327.64C12.7121 334.572 7.33544 344.063 7.33544 357C7.33544 366.226 10.0709 373.44 14.5078 379.053C34.1419 403.892 48.8655 422.519 58.9059 435.382C63.9263 441.813 67.7734 446.8 70.4771 450.401C71.8291 452.202 72.8926 453.652 73.6729 454.761C74.4618 455.882 74.9381 456.623 75.1385 457.019C76.1481 459.015 76.7639 460.102 77.149 460.746C77.2769 460.96 77.3847 461.134 77.4658 461.264C77.5031 461.325 77.5348 461.376 77.5602 461.417C77.6496 461.564 77.6702 461.61 77.6812 461.642C77.6922 461.673 77.7044 461.722 77.7253 461.892C77.7441 462.046 77.7718 462.313 77.819 462.674C77.9164 463.418 78.107 464.652 78.5529 466.845C78.6543 467.343 78.7489 467.712 78.8419 467.97C78.8871 468.095 78.9438 468.227 79.0197 468.341C79.0582 468.399 79.1161 468.475 79.1995 468.543Z" stroke="url(#paint0_linear_1_1596)" stroke-width="1.32912" style="mix-blend-mode:overlay"/>
</g>
<defs>
<filter id="filter0_bd_1_1596" x="-39.8736" y="-20.1079" width="159.747" height="799.855" filterUnits="userSpaceOnUse" color-interpolation-filters="sRGB">
<feFlood flood-opacity="0" result="BackgroundImageFix"/>
<feGaussianBlur in="BackgroundImageFix" stdDeviation="10.054"/>
<feComposite in2="SourceAlpha" operator="in" result="effect1_backgroundBlur_1_1596"/>
<feColorMatrix in="SourceAlpha" type="matrix" values="0 0 0 0 0 0 0 0 0 0 0 0 0 0 0 0 0 0 127 0" result="hardAlpha"/>
<feOffset dy="39.8736"/>
<feGaussianBlur stdDeviation="19.9368"/>
<feColorMatrix type="matrix" values="0 0 0 0 0.269263 0 0 0 0 0.166562 0 0 0 0 0.4875 0 0 0 0.15 0"/>
<feBlend mode="normal" in2="effect1_backgroundBlur_1_1596" result="effect2_dropShadow_1_1596"/>
<feBlend mode="normal" in="SourceGraphic" in2="effect2_dropShadow_1_1596" result="shape"/>
</filter>
<linearGradient id="paint0_linear_1_1596" x1="0" y1="0" x2="157.937" y2="18.05" gradientUnits="userSpaceOnUse">
<stop stop-color="white" stop-opacity="0.6"/>
<stop offset="1"/>
</linearGradient>
</defs>
</svg>
