<svg width="1203" height="1024" viewBox="0 0 1203 1024" fill="none" xmlns="http://www.w3.org/2000/svg">
<g filter="url(#filter0_f_1_1399)">
<circle cx="601.5" cy="511.5" r="429.5" fill="url(#paint0_radial_1_1399)" fill-opacity="0.6"/>
</g>
<g style="mix-blend-mode:overlay">
<path d="M521.07 423.16C312.617 447.539 158 537.015 158 643.665C158 769.07 371.781 870.731 635.493 870.731C899.204 870.731 1112.99 769.07 1112.99 643.665C1112.99 533.564 948.2 441.766 729.514 421" stroke="url(#paint1_angular_1_1399)" stroke-width="1.70856" stroke-linecap="round"/>
</g>
<g style="mix-blend-mode:overlay">
<path d="M521.07 424.76C312.617 449.138 158 538.615 158 645.264C158 770.669 371.781 872.33 635.493 872.33C899.204 872.33 1112.99 770.669 1112.99 645.264C1112.99 535.164 948.2 443.366 729.514 422.599" stroke="url(#paint2_angular_1_1399)" stroke-width="1.70856" stroke-linecap="round"/>
</g>
<g style="mix-blend-mode:overlay">
<path d="M745.746 428.28C956.303 451.946 1112.99 541.903 1112.99 649.263C1112.99 774.668 899.204 876.328 635.493 876.328C371.781 876.328 158 774.668 158 649.263C158 544.369 307.568 456.087 510.818 430.015" stroke="url(#paint3_angular_1_1399)" stroke-width="1.70856" stroke-linecap="round"/>
</g>
<g style="mix-blend-mode:overlay">
<path d="M494.587 438.643C299.655 467.231 158 553.579 158 655.66C158 781.065 371.781 882.726 635.493 882.726C899.204 882.726 1112.99 781.065 1112.99 655.66C1112.99 550.27 961.999 461.65 757.279 436.046" stroke="url(#paint4_angular_1_1399)" stroke-width="1.70856" stroke-linecap="round"/>
</g>
<g style="mix-blend-mode:overlay">
<path d="M774.791 447.204C970.552 475.553 1112.99 562.094 1112.99 664.456C1112.99 789.861 899.204 891.522 635.493 891.522C371.781 891.522 158 789.861 158 664.456C158 565.458 291.228 481.257 477.074 450.186" stroke="url(#paint5_angular_1_1399)" stroke-width="1.70856" stroke-linecap="round"/>
</g>
<defs>
<filter id="filter0_f_1_1399" x="0.199997" y="-89.8" width="1202.6" height="1202.6" filterUnits="userSpaceOnUse" color-interpolation-filters="sRGB">
<feFlood flood-opacity="0" result="BackgroundImageFix"/>
<feBlend mode="normal" in="SourceGraphic" in2="BackgroundImageFix" result="shape"/>
<feGaussianBlur stdDeviation="85.9" result="effect1_foregroundBlur_1_1399"/>
</filter>
<radialGradient id="paint0_radial_1_1399" cx="0" cy="0" r="1" gradientUnits="userSpaceOnUse" gradientTransform="translate(555.973 498.615) rotate(89.3883) scale(482.785)">
<stop stop-color="#2954A3"/>
<stop offset="1" stop-color="#101241"/>
</radialGradient>
<radialGradient id="paint1_angular_1_1399" cx="0" cy="0" r="1" gradientUnits="userSpaceOnUse" gradientTransform="translate(642.381 665.459) scale(508.767 237.904)">
<stop offset="0.458333" stop-color="white"/>
<stop offset="0.717799" stop-color="white" stop-opacity="0"/>
<stop offset="0.782437" stop-color="white" stop-opacity="0"/>
<stop offset="1" stop-color="white" stop-opacity="0.4"/>
</radialGradient>
<radialGradient id="paint2_angular_1_1399" cx="0" cy="0" r="1" gradientUnits="userSpaceOnUse" gradientTransform="translate(642.381 667.059) scale(508.767 237.905)">
<stop offset="0.458333" stop-color="white"/>
<stop offset="0.717799" stop-color="white" stop-opacity="0"/>
<stop offset="0.782437" stop-color="white" stop-opacity="0"/>
<stop offset="1" stop-color="white" stop-opacity="0.4"/>
</radialGradient>
<radialGradient id="paint3_angular_1_1399" cx="0" cy="0" r="1" gradientUnits="userSpaceOnUse" gradientTransform="translate(642.381 671.825) scale(508.767 237.015)">
<stop offset="0.458333" stop-color="white"/>
<stop offset="0.717799" stop-color="white" stop-opacity="0"/>
<stop offset="0.782437" stop-color="white" stop-opacity="0"/>
<stop offset="1" stop-color="white" stop-opacity="0.4"/>
</radialGradient>
<radialGradient id="paint4_angular_1_1399" cx="0" cy="0" r="1" gradientUnits="userSpaceOnUse" gradientTransform="translate(642.381 678.847) scale(508.767 236.29)">
<stop offset="0.458333" stop-color="white"/>
<stop offset="0.717799" stop-color="white" stop-opacity="0"/>
<stop offset="0.782437" stop-color="white" stop-opacity="0"/>
<stop offset="1" stop-color="white" stop-opacity="0.4"/>
</radialGradient>
<radialGradient id="paint5_angular_1_1399" cx="0" cy="0" r="1" gradientUnits="userSpaceOnUse" gradientTransform="translate(642.381 688.721) scale(508.767 235.041)">
<stop offset="0.458333" stop-color="white"/>
<stop offset="0.717799" stop-color="white" stop-opacity="0"/>
<stop offset="0.782437" stop-color="white" stop-opacity="0"/>
<stop offset="1" stop-color="white" stop-opacity="0.4"/>
</radialGradient>
</defs>
</svg>
