<svg width="44" height="43" viewBox="0 0 44 43" fill="none" xmlns="http://www.w3.org/2000/svg">
<path d="M16.1796 13.3204L16.7929 12.7071C17.1834 12.3166 17.8166 12.3166 18.2071 12.7071L20.7929 15.2929C21.1834 15.6834 21.1834 16.3166 20.7929 16.7071L19.0005 18.4995C18.7016 18.7984 18.6275 19.255 18.8165 19.6331C19.9093 21.8186 21.6814 23.5907 23.8669 24.6835C24.245 24.8725 24.7016 24.7984 25.0005 24.4995L26.7929 22.7071C27.1834 22.3166 27.8166 22.3166 28.2071 22.7071L30.7929 25.2929C31.1834 25.6834 31.1834 26.3166 30.7929 26.7071L30.1796 27.3204C28.0683 29.4317 24.7257 29.6693 22.337 27.8777L21.1286 26.9714C19.385 25.6638 17.8362 24.115 16.5286 22.3714L15.6223 21.163C13.8307 18.7743 14.0683 15.4317 16.1796 13.3204Z" fill="#0F103F"/>
</svg>
