<svg width="1133" height="1342" viewBox="0 0 1133 1342" fill="none" xmlns="http://www.w3.org/2000/svg">
<path d="M1064.94 893.215C1057.31 990.26 972.451 1062.74 875.406 1055.11C778.361 1047.48 705.877 962.62 713.51 865.575C721.142 768.53 806 696.046 903.045 703.679C1000.09 711.311 1072.57 796.169 1064.94 893.215Z" fill="url(#paint0_linear_1_1229)"/>
<path d="M1027.02 887.978C1027.8 957.064 973.205 1003.69 905.089 992.129C836.974 980.564 781.128 915.184 780.354 846.098C779.579 777.013 834.17 730.383 902.286 741.947C970.401 753.512 1026.25 818.892 1027.02 887.978Z" fill="url(#paint1_radial_1_1229)"/>
<path d="M1017.11 934.067C1031.31 1012.46 981.856 1054.71 906.645 1028.43C831.434 1002.14 758.95 917.285 744.749 838.89C730.547 760.494 780.005 718.249 855.217 744.531C930.428 770.814 1002.91 855.672 1017.11 934.067Z" fill="url(#paint2_radial_1_1229)"/>
<path d="M1016.76 934.131C1023.84 973.253 1015.03 1003.26 995.174 1020.23C975.315 1037.19 944.297 1041.2 906.764 1028.08C869.233 1014.97 832.36 987.229 803.093 952.965C773.826 918.702 752.191 877.945 745.104 838.825C738.017 799.703 746.828 769.694 766.687 752.731C786.547 735.768 817.564 731.756 855.097 744.872C892.629 757.987 929.502 785.728 958.769 819.991C988.036 854.255 1009.67 895.011 1016.76 934.131Z" stroke="url(#paint3_linear_1_1229)" stroke-opacity="0.2" stroke-width="0.722376"/>
<mask id="path-5-inside-1_1_1229" fill="white">
<path fill-rule="evenodd" clip-rule="evenodd" d="M985.345 953.432C985.907 945.075 985.179 935.745 983.023 925.564C970.517 866.499 914.672 801.119 858.289 779.534C848.569 775.813 839.468 773.636 831.126 772.884C826.827 716.824 865.932 689.009 924.066 710.262C987.173 733.332 1048.81 805.487 1061.73 871.425C1073.63 932.166 1040.04 966.442 985.345 953.432Z"/>
</mask>
<path fill-rule="evenodd" clip-rule="evenodd" d="M985.345 953.432C985.907 945.075 985.179 935.745 983.023 925.564C970.517 866.499 914.672 801.119 858.289 779.534C848.569 775.813 839.468 773.636 831.126 772.884C826.827 716.824 865.932 689.009 924.066 710.262C987.173 733.332 1048.81 805.487 1061.73 871.425C1073.63 932.166 1040.04 966.442 985.345 953.432Z" fill="url(#paint4_linear_1_1229)"/>
<path d="M983.023 925.564L982.317 925.713L983.023 925.564ZM985.345 953.432L984.624 953.384L984.583 953.994L985.178 954.135L985.345 953.432ZM858.289 779.534L858.547 778.859L858.289 779.534ZM831.126 772.884L830.405 772.939L830.452 773.549L831.061 773.604L831.126 772.884ZM924.066 710.262L923.818 710.94L924.066 710.262ZM1061.73 871.425L1061.02 871.564L1061.73 871.425ZM982.317 925.713C984.461 935.841 985.181 945.103 984.624 953.384L986.066 953.481C986.632 945.046 985.897 935.65 983.73 925.414L982.317 925.713ZM858.03 780.208C886.081 790.947 914.044 812.603 936.561 838.963C959.077 865.324 976.095 896.328 982.317 925.713L983.73 925.414C977.446 895.735 960.288 864.517 937.659 838.025C915.03 811.533 886.879 789.706 858.547 778.859L858.03 780.208ZM831.061 773.604C839.327 774.348 848.363 776.507 858.03 780.208L858.547 778.859C848.776 775.118 839.61 772.923 831.19 772.165L831.061 773.604ZM831.846 772.829C829.71 744.968 838.363 724.292 854.592 713.177C870.837 702.05 894.879 700.361 923.818 710.94L924.314 709.583C895.119 698.91 870.542 700.501 853.776 711.985C836.993 723.479 828.243 744.739 830.405 772.939L831.846 772.829ZM923.818 710.94C955.226 722.422 986.314 746.141 1011.17 775.237C1036.02 804.333 1054.59 838.746 1061.02 871.564L1062.44 871.286C1055.95 838.166 1037.24 803.532 1012.27 774.299C987.295 745.065 956.012 721.171 924.314 709.583L923.818 710.94ZM1061.02 871.564C1066.94 901.8 1061.52 925.283 1047.99 939.589C1034.47 953.881 1012.7 959.195 985.512 952.73L985.178 954.135C1012.69 960.679 1035.06 955.36 1049.04 940.581C1063 925.816 1068.41 901.79 1062.44 871.286L1061.02 871.564Z" fill="url(#paint5_linear_1_1229)" fill-opacity="0.3" mask="url(#path-5-inside-1_1_1229)"/>
<g style="mix-blend-mode:lighten">
<ellipse cx="887.079" cy="787.599" rx="215.27" ry="209.678" transform="rotate(-130.503 887.079 787.599)" fill="url(#paint6_radial_1_1229)" fill-opacity="0.6"/>
</g>
<g style="mix-blend-mode:lighten">
<path d="M632.26 595.356C756.445 489.281 943.401 504.304 1049.84 628.912C1156.27 753.52 1141.89 940.525 1017.7 1046.6C893.516 1152.68 706.56 1137.65 600.124 1013.05C493.687 888.437 508.075 701.432 632.26 595.356Z" fill="url(#paint7_radial_1_1229)" fill-opacity="0.8"/>
</g>
<path d="M983.021 925.563C995.527 984.627 959.958 1015.01 903.575 993.424C847.192 971.838 791.346 906.458 778.84 847.394C766.334 788.329 801.903 757.947 858.286 779.533C914.669 801.119 970.515 866.499 983.021 925.563Z" fill="url(#paint8_radial_1_1229)"/>
<path d="M776.382 1224.55C679.641 1238.41 603.855 1213.08 559.44 1161.09C515.026 1109.09 501.861 1030.28 530.666 936.889C559.472 843.5 624.78 753.3 707.107 682.978C789.435 612.656 888.735 562.252 985.48 548.4C1082.22 534.548 1158.01 559.872 1202.42 611.869C1246.84 663.866 1260 742.679 1231.2 836.065C1202.39 929.455 1137.08 1019.65 1054.75 1089.98C972.427 1160.3 873.127 1210.7 776.382 1224.55Z" stroke="url(#paint9_linear_1_1229)" stroke-width="1.20396"/>
<path d="M765.399 1212.1C668.546 1225.97 592.574 1200.62 548.023 1148.46C503.472 1096.31 490.316 1017.31 519.155 923.813C547.994 830.317 613.363 740.044 695.744 669.677C778.124 599.31 877.506 548.856 974.361 534.988C1071.21 521.12 1147.19 546.464 1191.74 598.621C1236.29 650.778 1249.44 729.778 1220.61 823.273C1191.77 916.768 1126.4 1007.04 1044.02 1077.41C961.636 1147.78 862.254 1198.23 765.399 1212.1Z" stroke="url(#paint10_linear_1_1229)" stroke-width="0.240792"/>
<path d="M755.426 1270.7C642.147 1284.71 552.485 1252.92 499.016 1190.32C445.547 1127.72 428.165 1034.19 459.71 924.499C491.255 814.797 565.746 709.768 660.706 628.656C755.666 547.544 871.049 490.388 984.333 476.38C1097.61 462.372 1187.27 494.161 1240.74 556.758C1294.21 619.356 1311.59 712.886 1280.05 822.582C1248.5 932.283 1174.01 1037.31 1079.05 1118.42C984.093 1199.54 868.71 1256.69 755.426 1270.7Z" stroke="url(#paint11_linear_1_1229)" stroke-width="1.20396"/>
<path d="M755.426 1270.7C642.147 1284.71 552.485 1252.92 499.016 1190.32C445.547 1127.72 428.165 1034.19 459.71 924.499C491.255 814.797 565.746 709.768 660.706 628.656C755.666 547.544 871.049 490.388 984.333 476.38C1097.61 462.372 1187.27 494.161 1240.74 556.758C1294.21 619.356 1311.59 712.886 1280.05 822.582C1248.5 932.283 1174.01 1037.31 1079.05 1118.42C984.093 1199.54 868.71 1256.69 755.426 1270.7Z" stroke="url(#paint12_linear_1_1229)" stroke-opacity="0.2" stroke-width="1.20396"/>
<path d="M745.391 1258.92C627.699 1267.75 532.215 1229.19 472.929 1159.78C413.643 1090.38 390.483 990.038 417.607 875.174C444.733 760.302 517.009 652.694 611.959 571.59C706.91 490.485 824.494 435.921 942.194 427.086C1059.89 418.252 1155.37 456.813 1214.66 526.221C1273.94 595.628 1297.1 695.966 1269.98 810.831C1242.85 925.702 1170.58 1033.31 1075.63 1114.42C980.675 1195.52 863.091 1250.08 745.391 1258.92Z" stroke="url(#paint13_linear_1_1229)" stroke-width="1.20396"/>
<rect x="716.815" y="800.083" width="4.57312" height="4.57311" transform="rotate(-85.5031 716.815 800.083)" fill="#00F0FF" fill-opacity="0.5"/>
<rect x="717.002" y="615.602" width="1.88565" height="1.88565" transform="rotate(-85.5031 717.002 615.602)" fill="#00F0FF"/>
<rect width="2.47636" height="2.47636" transform="matrix(-0.078406 0.996921 0.996922 0.0784061 1088.8 580.825)" fill="#00F0FF"/>
<rect x="784.94" y="566.145" width="2.85182" height="2.85182" transform="rotate(-85.5031 784.94 566.145)" fill="#00F0FF"/>
<rect x="793.123" y="607.704" width="1.69013" height="1.69013" transform="rotate(-85.5031 793.123 607.704)" fill="#00F0FF"/>
<rect x="800.315" y="877.761" width="4.57312" height="4.57311" transform="rotate(-85.5031 800.315 877.761)" fill="#00F0FF"/>
<rect x="667.653" y="959.042" width="4.57312" height="4.57311" transform="rotate(-85.5031 667.653 959.042)" fill="#0500FF" fill-opacity="0.5"/>
<rect x="630.729" y="818.548" width="3.19614" height="3.19614" transform="rotate(-85.5031 630.729 818.548)" fill="#3DFFFB"/>
<rect x="1005.6" y="1022.51" width="5.94404" height="5.94404" transform="rotate(-85.5031 1005.6 1022.51)" fill="#0500FF" fill-opacity="0.5"/>
<rect width="5.43657" height="5.43657" transform="matrix(-0.958331 -0.28566 0.285693 -0.958321 1068.6 777.558)" fill="#0066FF" fill-opacity="0.5"/>
<rect width="4.25311" height="4.25311" transform="matrix(-0.996921 -0.0784134 0.0783987 -0.996922 964.652 705.282)" fill="#00D1FF"/>
<rect width="5.10915" height="5.10915" transform="matrix(0.958326 0.285676 0.285676 -0.958326 786.079 798.503)" fill="#001AFF" fill-opacity="0.5"/>
<rect x="814.228" y="673.383" width="5.43657" height="5.43657" transform="rotate(-163.401 814.228 673.383)" fill="#0066FF" fill-opacity="0.5"/>
<rect x="981.674" y="586.686" width="3.93056" height="3.93056" transform="rotate(-175.503 981.674 586.686)" fill="#0500FF" fill-opacity="0.5"/>
<rect width="3.80351" height="3.80351" transform="matrix(-0.958333 -0.285652 0.2857 -0.958319 1117.68 852.182)" fill="#0500FF" fill-opacity="0.5"/>
<rect width="3.04573" height="3.04573" transform="matrix(0.0784165 -0.996921 0.996922 0.0783957 755.552 805.046)" fill="#00FFF0" fill-opacity="0.6"/>
<rect x="728.768" y="1005.89" width="3.43135" height="3.43135" transform="rotate(-85.503 728.768 1005.89)" fill="#00FFF0"/>
<rect width="3.78863" height="3.78863" transform="matrix(-0.0784062 0.996921 0.996922 0.078406 613.837 765.816)" fill="#00FFF0"/>
<rect x="689.59" y="712.159" width="4.03142" height="4.03142" transform="rotate(-85.503 689.59 712.159)" fill="#00FFF0"/>
<rect width="4.03142" height="4.03142" transform="matrix(0.0783984 -0.996922 0.996921 0.0784138 984.409 869.972)" fill="#00FFF0" fill-opacity="0.5"/>
<rect x="879.567" y="918.144" width="2.20999" height="2.20999" transform="rotate(-85.503 879.567 918.144)" fill="#00FFF0" fill-opacity="0.5"/>
<rect x="807.14" y="1054.44" width="4.03142" height="4.03142" transform="rotate(-120.813 807.14 1054.44)" fill="#0500FF" fill-opacity="0.5"/>
<rect x="765.9" y="962.071" width="2.81467" height="2.81467" transform="rotate(-85.503 765.9 962.071)" fill="#00D1FF" fill-opacity="0.6"/>
<rect x="793.529" y="984.61" width="7.58361" height="7.58361" transform="rotate(-85.503 793.529 984.61)" fill="#6100FF" fill-opacity="0.5"/>
<g opacity="0.5">
<rect x="603.487" y="697.132" width="3.04573" height="3.04573" transform="rotate(-85.5031 603.487 697.132)" fill="#00FFF0" fill-opacity="0.6"/>
<rect width="3.43135" height="3.43135" transform="matrix(0.0784151 -0.996921 0.996922 0.0783971 576.704 897.978)" fill="#00FFF0"/>
<rect width="3.78863" height="3.78863" transform="matrix(-0.078406 0.996922 0.996921 0.0784062 461.773 657.905)" fill="#00FFF0"/>
<rect width="4.03142" height="4.03142" transform="matrix(0.0783982 -0.996922 0.996921 0.078414 537.525 604.244)" fill="#00FFF0"/>
<rect x="832.345" y="762.057" width="4.03142" height="4.03142" transform="rotate(-85.5031 832.345 762.057)" fill="#00FFF0" fill-opacity="0.5"/>
<rect x="727.503" y="810.229" width="2.20999" height="2.20999" transform="rotate(-85.5031 727.503 810.229)" fill="#00FFF0" fill-opacity="0.5"/>
<rect x="655.076" y="946.523" width="4.03142" height="4.03142" transform="rotate(-120.813 655.076 946.523)" fill="#0500FF" fill-opacity="0.5"/>
<rect x="613.837" y="854.156" width="2.81467" height="2.81467" transform="rotate(-85.5031 613.837 854.156)" fill="#00D1FF" fill-opacity="0.6"/>
<rect width="7.58361" height="7.58361" transform="matrix(0.0784018 -0.996922 0.996921 0.0784103 641.464 876.698)" fill="#6100FF" fill-opacity="0.5"/>
</g>
<path d="M974.763 1010.25L969.37 982.185L996.247 991.899L1001.64 1019.96L974.763 1010.25Z" fill="url(#paint14_linear_1_1229)"/>
<path d="M996.246 991.903L969.37 982.188L947.641 1033.42L996.246 991.903Z" fill="url(#paint15_linear_1_1229)"/>
<path d="M996.247 991.907L1001.67 1019.96L947.642 1033.42L996.247 991.907Z" fill="url(#paint16_linear_1_1229)"/>
<path d="M776.47 770.451L773.067 752.743L790.026 758.872L793.429 776.581L776.47 770.451Z" fill="url(#paint17_linear_1_1229)"/>
<path d="M790.029 758.87L773.067 752.74L759.354 785.069L790.029 758.87Z" fill="url(#paint18_linear_1_1229)" fill-opacity="0.6"/>
<path d="M790.027 758.869L793.451 776.576L759.353 785.068L790.027 758.869Z" fill="url(#paint19_linear_1_1229)"/>
<path d="M661.749 629.625L655.932 600.387L684.034 610.337L689.851 639.576L661.749 629.625Z" fill="url(#paint20_linear_1_1229)"/>
<path d="M684.035 610.343L655.933 600.392L633.615 653.976L684.035 610.343Z" fill="url(#paint21_linear_1_1229)" fill-opacity="0.6"/>
<path d="M684.034 610.343L689.884 639.572L633.615 653.977L684.034 610.343Z" fill="url(#paint22_linear_1_1229)"/>
<path d="M805.947 924.875L804.236 938.302L814.219 949.693L826.391 948.432L821.213 933.226L805.947 924.875Z" fill="url(#paint23_linear_1_1229)" fill-opacity="0.7"/>
<path d="M771.444 975.057L808.188 965.159L824.787 962.88L771.444 975.057Z" fill="url(#paint24_linear_1_1229)" fill-opacity="0.8"/>
<path d="M771.444 975.058L789.193 943.4L791.705 924.919L771.444 975.058Z" fill="url(#paint25_linear_1_1229)"/>
<path d="M791.703 924.923L789.196 943.411L804.236 938.303L805.949 924.873L791.703 924.923Z" fill="url(#paint26_linear_1_1229)" fill-opacity="0.6"/>
<path d="M808.185 965.156L789.197 943.407L804.238 938.299L814.219 949.689L808.185 965.156Z" fill="url(#paint27_linear_1_1229)" fill-opacity="0.6"/>
<path d="M808.183 965.163L824.785 962.879L826.391 948.43L814.218 949.692L808.183 965.163Z" fill="url(#paint28_linear_1_1229)" fill-opacity="0.8"/>
<path d="M771.445 975.056L816.3 938.377L824.787 962.879L771.445 975.056Z" fill="url(#paint29_linear_1_1229)"/>
<path d="M771.444 975.056L816.297 938.377L791.705 924.916L771.444 975.056Z" fill="url(#paint30_linear_1_1229)"/>
<path d="M824.785 962.881L816.3 938.376L821.214 933.223L826.39 948.437L824.785 962.881Z" fill="url(#paint31_linear_1_1229)" fill-opacity="0.6"/>
<path d="M791.698 924.924L816.296 938.379L821.214 933.226L805.942 924.874L791.698 924.924Z" fill="url(#paint32_linear_1_1229)" fill-opacity="0.6"/>
<defs>
<linearGradient id="paint0_linear_1_1229" x1="965.576" y1="721.424" x2="840.209" y2="921.264" gradientUnits="userSpaceOnUse">
<stop stop-color="white"/>
<stop offset="0.165772" stop-color="#71FFF6"/>
<stop offset="0.552083" stop-color="#4F75FF"/>
<stop offset="1" stop-color="#5E64FF" stop-opacity="0"/>
</linearGradient>
<radialGradient id="paint1_radial_1_1229" cx="0" cy="0" r="1" gradientUnits="userSpaceOnUse" gradientTransform="translate(891.265 917.085) rotate(-77.9792) scale(157.011 187.398)">
<stop offset="0.40625" stop-color="#3330B1" stop-opacity="0.1"/>
<stop offset="0.678936" stop-color="#58FFFF" stop-opacity="0.5"/>
<stop offset="1" stop-color="white"/>
</radialGradient>
<radialGradient id="paint2_radial_1_1229" cx="0" cy="0" r="1" gradientUnits="userSpaceOnUse" gradientTransform="translate(879.724 764.165) rotate(123.323) scale(199.8 342.233)">
<stop stop-color="white"/>
<stop offset="0.298196" stop-color="#5EF5FF"/>
<stop offset="0.538073" stop-color="#3432BD"/>
<stop offset="0.914407" stop-color="#171940"/>
</radialGradient>
<linearGradient id="paint3_linear_1_1229" x1="873.607" y1="751.151" x2="824.854" y2="964.914" gradientUnits="userSpaceOnUse">
<stop stop-color="white"/>
<stop offset="1" stop-color="white" stop-opacity="0"/>
</linearGradient>
<linearGradient id="paint4_linear_1_1229" x1="960.853" y1="744.03" x2="943.689" y2="893.916" gradientUnits="userSpaceOnUse">
<stop stop-color="white"/>
<stop offset="0.502014" stop-color="#4FFFF4" stop-opacity="0.1"/>
<stop offset="1" stop-color="#5ECFFF" stop-opacity="0.6"/>
</linearGradient>
<linearGradient id="paint5_linear_1_1229" x1="946.549" y1="678.681" x2="971.922" y2="1015.35" gradientUnits="userSpaceOnUse">
<stop stop-color="white"/>
<stop offset="1" stop-color="white" stop-opacity="0"/>
</linearGradient>
<radialGradient id="paint6_radial_1_1229" cx="0" cy="0" r="1" gradientUnits="userSpaceOnUse" gradientTransform="translate(887.079 802.461) rotate(80.7781) scale(166.684 171.23)">
<stop offset="0.0729167" stop-color="white"/>
<stop offset="0.507801" stop-color="#C173FF" stop-opacity="0.9"/>
<stop offset="1" stop-color="#0E26FF" stop-opacity="0"/>
</radialGradient>
<radialGradient id="paint7_radial_1_1229" cx="0" cy="0" r="1" gradientUnits="userSpaceOnUse" gradientTransform="translate(840.919 807.366) rotate(-49.5194) scale(234.948 236.158)">
<stop offset="0.0729167" stop-color="#8785FF"/>
<stop offset="1" stop-color="#3E0EFF" stop-opacity="0"/>
</radialGradient>
<radialGradient id="paint8_radial_1_1229" cx="0" cy="0" r="1" gradientUnits="userSpaceOnUse" gradientTransform="translate(786.489 995.834) rotate(-55.6889) scale(204.144 359.183)">
<stop stop-color="#3330B1"/>
<stop offset="1" stop-color="#0A0926"/>
</radialGradient>
<linearGradient id="paint9_linear_1_1229" x1="622.979" y1="584.485" x2="903.382" y2="912.76" gradientUnits="userSpaceOnUse">
<stop stop-color="#8FBCFF" stop-opacity="0.6"/>
<stop offset="1" stop-color="#8FBCFF" stop-opacity="0"/>
</linearGradient>
<linearGradient id="paint10_linear_1_1229" x1="680.525" y1="651.86" x2="1044.1" y2="1077.5" gradientUnits="userSpaceOnUse">
<stop stop-color="#8FBCFF" stop-opacity="0.6"/>
<stop offset="1" stop-color="#8FBCFF" stop-opacity="0"/>
</linearGradient>
<linearGradient id="paint11_linear_1_1229" x1="547.063" y1="495.611" x2="931.421" y2="945.588" gradientUnits="userSpaceOnUse">
<stop stop-color="white" stop-opacity="0.6"/>
<stop offset="0.34375" stop-color="#8FBCFF" stop-opacity="0.6"/>
<stop offset="1" stop-color="#8FBCFF" stop-opacity="0"/>
</linearGradient>
<linearGradient id="paint12_linear_1_1229" x1="898.253" y1="499.784" x2="934.654" y2="657.452" gradientUnits="userSpaceOnUse">
<stop stop-color="#FF48D7"/>
<stop offset="0.234164" stop-color="white" stop-opacity="0.765836"/>
<stop offset="1" stop-color="#FF48D7" stop-opacity="0"/>
</linearGradient>
<linearGradient id="paint13_linear_1_1229" x1="591.387" y1="547.504" x2="869.655" y2="873.278" gradientUnits="userSpaceOnUse">
<stop stop-color="#8FBCFF" stop-opacity="0.6"/>
<stop offset="1" stop-color="#8FBCFF" stop-opacity="0"/>
</linearGradient>
<linearGradient id="paint14_linear_1_1229" x1="967.993" y1="999.698" x2="1003.02" y2="1002.45" gradientUnits="userSpaceOnUse">
<stop stop-color="#6083FF"/>
<stop offset="1" stop-color="#0C1E5E" stop-opacity="0"/>
</linearGradient>
<linearGradient id="paint15_linear_1_1229" x1="976.282" y1="978.531" x2="947.494" y2="1033.24" gradientUnits="userSpaceOnUse">
<stop offset="0.170794" stop-color="#3D3BA9"/>
<stop offset="0.537799" stop-color="#FF7BE2" stop-opacity="0.8"/>
<stop offset="0.791667" stop-color="white"/>
</linearGradient>
<linearGradient id="paint16_linear_1_1229" x1="947.833" y1="1033.64" x2="999.394" y2="1016.81" gradientUnits="userSpaceOnUse">
<stop stop-color="#3DDCFF"/>
<stop offset="0.427083" stop-color="#9D50FF" stop-opacity="0"/>
<stop offset="0.977116" stop-color="#3DDCFF"/>
</linearGradient>
<linearGradient id="paint17_linear_1_1229" x1="772.198" y1="763.793" x2="794.298" y2="765.531" gradientUnits="userSpaceOnUse">
<stop stop-color="#6083FF"/>
<stop offset="1" stop-color="#0C1E5E" stop-opacity="0"/>
</linearGradient>
<linearGradient id="paint18_linear_1_1229" x1="777.429" y1="750.431" x2="759.262" y2="784.96" gradientUnits="userSpaceOnUse">
<stop offset="0.170794" stop-color="#3D3BA9"/>
<stop offset="0.537799" stop-color="#FF7BE2" stop-opacity="0.8"/>
<stop offset="0.791667" stop-color="white"/>
</linearGradient>
<linearGradient id="paint19_linear_1_1229" x1="759.474" y1="785.209" x2="792.014" y2="774.588" gradientUnits="userSpaceOnUse">
<stop stop-color="#3DDCFF"/>
<stop offset="0.427083" stop-color="#9D50FF" stop-opacity="0.5"/>
<stop offset="0.977116" stop-color="#3DDCFF"/>
</linearGradient>
<linearGradient id="paint20_linear_1_1229" x1="654.615" y1="618.664" x2="691.168" y2="621.299" gradientUnits="userSpaceOnUse">
<stop stop-color="#6083FF"/>
<stop offset="1" stop-color="#0C1E5E" stop-opacity="0"/>
</linearGradient>
<linearGradient id="paint21_linear_1_1229" x1="663.118" y1="596.53" x2="633.461" y2="653.797" gradientUnits="userSpaceOnUse">
<stop offset="0.170794" stop-color="#3D3BA9"/>
<stop offset="0.537799" stop-color="#FF7BE2" stop-opacity="0.8"/>
<stop offset="0.791667" stop-color="white"/>
</linearGradient>
<linearGradient id="paint22_linear_1_1229" x1="633.815" y1="654.208" x2="687.486" y2="636.303" gradientUnits="userSpaceOnUse">
<stop stop-color="#3DDCFF"/>
<stop offset="0.427083" stop-color="#9D50FF" stop-opacity="0.5"/>
<stop offset="0.977116" stop-color="#3DDCFF"/>
</linearGradient>
<linearGradient id="paint23_linear_1_1229" x1="799.502" y1="933.949" x2="823.176" y2="935.389" gradientUnits="userSpaceOnUse">
<stop stop-color="#6587FF"/>
<stop offset="1" stop-color="#D8E0FF" stop-opacity="0.9"/>
</linearGradient>
<linearGradient id="paint24_linear_1_1229" x1="804.82" y1="946.548" x2="822.491" y2="977.8" gradientUnits="userSpaceOnUse">
<stop offset="0.135417" stop-color="white"/>
<stop offset="0.28125" stop-color="#89F8FF" stop-opacity="0.934673"/>
<stop offset="0.645833" stop-color="#71F6FF" stop-opacity="0.921354"/>
<stop offset="1" stop-color="#4A72FF" stop-opacity="0.9"/>
</linearGradient>
<linearGradient id="paint25_linear_1_1229" x1="771.58" y1="939.503" x2="787.62" y2="966.465" gradientUnits="userSpaceOnUse">
<stop offset="0.170794" stop-color="#3D3BA9"/>
<stop offset="0.537799" stop-color="#FF7BE2" stop-opacity="0.8"/>
<stop offset="0.791667" stop-color="white"/>
</linearGradient>
<linearGradient id="paint26_linear_1_1229" x1="798.234" y1="919.344" x2="806.367" y2="937.813" gradientUnits="userSpaceOnUse">
<stop offset="0.135417" stop-color="white"/>
<stop offset="0.28125" stop-color="#89F8FF" stop-opacity="0.934673"/>
<stop offset="0.645833" stop-color="#71F6FF" stop-opacity="0.921354"/>
<stop offset="1" stop-color="#4A72FF" stop-opacity="0.9"/>
</linearGradient>
<linearGradient id="paint27_linear_1_1229" x1="795.112" y1="938.354" x2="788.2" y2="958.113" gradientUnits="userSpaceOnUse">
<stop offset="0.135417" stop-color="white"/>
<stop offset="0.28125" stop-color="#89F8FF" stop-opacity="0.934673"/>
<stop offset="0.645833" stop-color="#71F6FF" stop-opacity="0.921354"/>
<stop offset="1" stop-color="#4A72FF" stop-opacity="0.9"/>
</linearGradient>
<linearGradient id="paint28_linear_1_1229" x1="823.894" y1="948.794" x2="831.205" y2="962.857" gradientUnits="userSpaceOnUse">
<stop offset="0.135417" stop-color="white"/>
<stop offset="0.28125" stop-color="#89F8FF" stop-opacity="0.934673"/>
<stop offset="0.645833" stop-color="#71F6FF" stop-opacity="0.921354"/>
<stop offset="1" stop-color="#4A72FF" stop-opacity="0.9"/>
</linearGradient>
<linearGradient id="paint29_linear_1_1229" x1="788.182" y1="994.3" x2="797.233" y2="945.102" gradientUnits="userSpaceOnUse">
<stop stop-color="#3DDCFF"/>
<stop offset="0.427083" stop-color="#9D50FF" stop-opacity="0"/>
<stop offset="0.977116" stop-color="#3DDCFF"/>
</linearGradient>
<linearGradient id="paint30_linear_1_1229" x1="810.162" y1="919.335" x2="806.631" y2="989.372" gradientUnits="userSpaceOnUse">
<stop offset="0.170794" stop-color="#3D3BA9"/>
<stop offset="0.537799" stop-color="#FF7BE2" stop-opacity="0.8"/>
<stop offset="0.791667" stop-color="white"/>
</linearGradient>
<linearGradient id="paint31_linear_1_1229" x1="823.069" y1="932.594" x2="827.818" y2="961.932" gradientUnits="userSpaceOnUse">
<stop offset="0.135417" stop-color="white"/>
<stop offset="0.28125" stop-color="#89F8FF" stop-opacity="0.934673"/>
<stop offset="0.645833" stop-color="#71F6FF" stop-opacity="0.921354"/>
<stop offset="1" stop-color="#4A72FF" stop-opacity="0.9"/>
</linearGradient>
<linearGradient id="paint32_linear_1_1229" x1="800.209" y1="934.887" x2="815.614" y2="921.729" gradientUnits="userSpaceOnUse">
<stop stop-color="#3E5ABE"/>
<stop offset="1" stop-color="#3E5ABE" stop-opacity="0"/>
</linearGradient>
</defs>
</svg>
