<svg width="44" height="44" viewBox="0 0 44 44" fill="none" xmlns="http://www.w3.org/2000/svg">
<path d="M25.755 24.255H24.965L24.685 23.985C25.665 22.845 26.255 21.365 26.255 19.755C26.255 16.165 23.345 13.255 19.755 13.255C16.165 13.255 13.255 16.165 13.255 19.755C13.255 23.345 16.165 26.255 19.755 26.255C21.365 26.255 22.845 25.665 23.985 24.685L24.255 24.965V25.755L29.255 30.745L30.745 29.255L25.755 24.255ZM19.755 24.255C17.265 24.255 15.255 22.245 15.255 19.755C15.255 17.265 17.265 15.255 19.755 15.255C22.245 15.255 24.255 17.265 24.255 19.755C24.255 22.245 22.245 24.255 19.755 24.255Z" fill="#0F103F"/>
</svg>
